# Blender v2.78 (sub 0) OBJ File: ''
# www.blender.org
mtllib Cone.mtl
o Cone
v 0.830404 0.528328 -0.477374
v 0.830404 2.528328 0.282626
v 0.978672 0.528328 -0.462771
v 1.121243 0.528328 -0.419523
v 1.252637 0.528328 -0.349291
v 1.367805 0.528328 -0.254775
v 1.462321 0.528328 -0.139607
v 1.532552 0.528328 -0.008214
v 1.575800 0.528328 0.134357
v 1.590404 0.528328 0.282626
v 1.575800 0.528328 0.430894
v 1.532552 0.528328 0.573465
v 1.462321 0.528328 0.704859
v 1.367805 0.528328 0.820027
v 1.252637 0.528328 0.914543
v 1.121243 0.528328 0.984774
v 0.978672 0.528328 1.028023
v 0.830403 0.528328 1.042626
v 0.682135 0.528328 1.028023
v 0.539564 0.528328 0.984774
v 0.408170 0.528328 0.914542
v 0.293002 0.528328 0.820027
v 0.198486 0.528328 0.704859
v 0.128255 0.528328 0.573465
v 0.085007 0.528328 0.430894
v 0.070404 0.528328 0.282625
v 0.085007 0.528328 0.134356
v 0.128255 0.528328 -0.008214
v 0.198487 0.528328 -0.139608
v 0.293003 0.528328 -0.254776
v 0.408171 0.528328 -0.349292
v 0.539565 0.528328 -0.419523
v 0.682136 0.528328 -0.462771
vn 0.0917 0.3537 -0.9308
vn 0.2715 0.3537 -0.8951
vn 0.4409 0.3537 -0.8249
vn 0.5934 0.3537 -0.7230
vn 0.7230 0.3537 -0.5934
vn 0.8249 0.3537 -0.4409
vn 0.8951 0.3537 -0.2715
vn 0.9308 0.3537 -0.0917
vn 0.9308 0.3537 0.0917
vn 0.8951 0.3537 0.2715
vn 0.8249 0.3537 0.4409
vn 0.7230 0.3537 0.5934
vn 0.5934 0.3537 0.7230
vn 0.4409 0.3537 0.8249
vn 0.2715 0.3537 0.8951
vn 0.0917 0.3537 0.9308
vn -0.0917 0.3537 0.9308
vn -0.2715 0.3537 0.8951
vn -0.4409 0.3537 0.8249
vn -0.5934 0.3537 0.7230
vn -0.7230 0.3537 0.5934
vn -0.8249 0.3537 0.4409
vn -0.8951 0.3537 0.2715
vn -0.9308 0.3537 0.0917
vn -0.9308 0.3537 -0.0917
vn -0.8951 0.3537 -0.2715
vn -0.8249 0.3537 -0.4409
vn -0.7230 0.3537 -0.5934
vn -0.5934 0.3537 -0.7230
vn -0.4409 0.3537 -0.8249
vn -0.2715 0.3537 -0.8951
vn -0.0917 0.3537 -0.9308
vn 0.0000 -1.0000 -0.0000
usemtl None
s off
f 1//1 2//1 3//1
f 3//2 2//2 4//2
f 4//3 2//3 5//3
f 5//4 2//4 6//4
f 6//5 2//5 7//5
f 7//6 2//6 8//6
f 8//7 2//7 9//7
f 9//8 2//8 10//8
f 10//9 2//9 11//9
f 11//10 2//10 12//10
f 12//11 2//11 13//11
f 13//12 2//12 14//12
f 14//13 2//13 15//13
f 15//14 2//14 16//14
f 16//15 2//15 17//15
f 17//16 2//16 18//16
f 18//17 2//17 19//17
f 19//18 2//18 20//18
f 20//19 2//19 21//19
f 21//20 2//20 22//20
f 22//21 2//21 23//21
f 23//22 2//22 24//22
f 24//23 2//23 25//23
f 25//24 2//24 26//24
f 26//25 2//25 27//25
f 27//26 2//26 28//26
f 28//27 2//27 29//27
f 29//28 2//28 30//28
f 30//29 2//29 31//29
f 31//30 2//30 32//30
f 32//31 2//31 33//31
f 33//32 2//32 1//32
f 17//33 25//33 33//33
f 33//33 1//33 3//33
f 3//33 4//33 5//33
f 5//33 6//33 7//33
f 7//33 8//33 5//33
f 9//33 10//33 11//33
f 11//33 12//33 9//33
f 13//33 14//33 15//33
f 15//33 16//33 17//33
f 17//33 18//33 19//33
f 19//33 20//33 21//33
f 21//33 22//33 23//33
f 23//33 24//33 25//33
f 25//33 26//33 27//33
f 27//33 28//33 25//33
f 29//33 30//33 31//33
f 31//33 32//33 29//33
f 33//33 3//33 5//33
f 5//33 8//33 9//33
f 9//33 12//33 13//33
f 13//33 15//33 9//33
f 17//33 19//33 25//33
f 21//33 23//33 25//33
f 25//33 28//33 29//33
f 29//33 32//33 33//33
f 33//33 5//33 17//33
f 9//33 15//33 17//33
f 19//33 21//33 25//33
f 25//33 29//33 33//33
f 5//33 9//33 17//33
